<svg width="140" height="102" viewBox="0 0 140 102" fill="none" xmlns="http://www.w3.org/2000/svg">
<g clip-path="url(#clip0)">
<path d="M0.889416 23.775C1.46686 11.6476 10.4574 1.83453 21.9383 0.800559L22.2265 0.774598L53.0591 0H70.4743H87.8896L118.858 1.57101L119.53 1.60822C129.815 2.17707 138.071 10.761 138.75 21.5905L139.255 29.6459L140 52.0037L139.255 72.6237L138.845 78.9124C138.109 90.1957 129.568 99.1662 118.858 99.9023L86.8732 101.402H70.4743H53.0591L22.2265 99.9023C10.6489 99.1702 1.44037 89.3905 0.835787 77.1847L0.609874 72.6237L0 52.0037L0.609874 29.6459L0.889416 23.775Z" fill="#2A8BF2" fill-opacity="0.75"/>
<path d="M111.48 21.7022L102.04 63.057L72.2363 31.6496L111.48 21.7022Z" fill="white"/>
<path d="M51.5291 43.3609L74.3158 66.8325M68.3404 65.9371L95.4459 37.3732M27.8569 75.4864L54.9625 46.9225" stroke="white" stroke-width="9.42056"/>
</g>
<defs>
<clipPath id="clip0">
<rect width="140" height="101.402" fill="white"/>
</clipPath>
</defs>
</svg>
