<svg width="21" height="20" viewBox="0 0 61 59" fill="none" xmlns="http://www.w3.org/2000/svg">
<path d="M60.4487 20.2599C60.4487 31.449 51.1455 40.5195 39.6695 40.5195C38.3448 40.5195 37.0496 40.3973 35.7938 40.1663L32.9588 43.2759C32.693 43.5675 32.3668 43.8009 32.0018 43.9607C31.6368 44.1205 31.2412 44.2031 30.841 44.2031H26.4463V48.8076C26.4463 50.3334 25.1777 51.5703 23.6128 51.5703H18.8902V56.1748C18.8902 57.7006 17.6216 58.9375 16.0567 58.9375H2.83353C1.2686 58.9375 0 57.7006 0 56.1748V47.1893C0 46.4566 0.298584 45.7538 0.829871 45.2357L19.9328 26.6103C19.2572 24.6126 18.8902 22.4781 18.8902 20.2598C18.8902 9.07062 28.1933 0.000115113 39.6694 1.09962e-09C51.1793 -0.000115111 60.4487 9.03758 60.4487 20.2599ZM39.6695 14.7344C39.6695 17.786 42.2067 20.2598 45.3365 20.2598C48.4664 20.2598 51.0036 17.786 51.0036 14.7344C51.0036 11.6827 48.4664 9.20898 45.3365 9.20898C42.2067 9.20898 39.6695 11.6827 39.6695 14.7344Z" fill="#C4C4C4"/>
</svg>
