<svg width="21" height="20" viewBox="0 0 52 60" fill="none" xmlns="http://www.w3.org/2000/svg">
<g clip-path="url(#clip0)">
<path d="M26 29.7143C34.2062 29.7143 40.8571 23.0634 40.8571 14.8571C40.8571 6.65089 34.2062 0 26 0C17.7938 0 11.1429 6.65089 11.1429 14.8571C11.1429 23.0634 17.7938 29.7143 26 29.7143ZM36.4 33.4286H34.4616C31.8848 34.6125 29.0179 35.2857 26 35.2857C22.9821 35.2857 20.1268 34.6125 17.5384 33.4286H15.6C6.9875 33.4286 0 40.4161 0 49.0286V53.8571C0 56.933 2.49554 59.4286 5.57143 59.4286H46.4286C49.5045 59.4286 52 56.933 52 53.8571V49.0286C52 40.4161 45.0125 33.4286 36.4 33.4286Z" fill="#C4C4C4"/>
</g>
<defs>
<clipPath id="clip0">
<rect width="52" height="59.4286" fill="white"/>
</clipPath>
</defs>
</svg>
